<svg viewBox="0 0 35 35" fill="none" xmlns="http://www.w3.org/2000/svg"><path fill-rule="evenodd" clip-rule="evenodd" d="M22.5848 8.00404L19.9507 8C16.9914 8 15.0789 9.87614 15.0789 12.78V14.9839H12.4304C12.2016 14.9839 12.0162 15.1613 12.0162 15.3801V18.5733C12.0162 18.7921 12.2018 18.9693 12.4304 18.9693H15.0789V27.0268C15.0789 27.2456 15.2642 27.4228 15.4931 27.4228H18.9486C19.1775 27.4228 19.3628 27.2454 19.3628 27.0268V18.9693H22.4595C22.6884 18.9693 22.8737 18.7921 22.8737 18.5733L22.875 15.3801C22.875 15.275 22.8312 15.1744 22.7537 15.1C22.6761 15.0257 22.5704 14.9839 22.4606 14.9839H19.3628V13.1156C19.3628 12.2176 19.5866 11.7618 20.8099 11.7618L22.5844 11.7612C22.813 11.7612 22.9984 11.5838 22.9984 11.3651V8.40008C22.9984 8.18165 22.8132 8.00445 22.5848 8.00404Z" fill="black"></path></svg>