<svg viewBox="0 0 35 35" fill="none" xmlns="http://www.w3.org/2000/svg"><path fill-rule="evenodd" clip-rule="evenodd" d="M22.3155 7H12.6845C9.55002 7 7 9.55002 7 12.6845V22.3157C7 25.45 9.55002 28 12.6845 28H22.3157C25.45 28 28 25.45 28 22.3157V12.6845C28 9.55002 25.45 7 22.3155 7ZM17.5 23.242C14.3338 23.242 11.758 20.6662 11.758 17.5C11.758 14.3338 14.3338 11.758 17.5 11.758C20.6662 11.758 23.242 14.3338 23.242 17.5C23.242 20.6662 20.6662 23.242 17.5 23.242ZM21.6826 11.4154C21.6826 12.3511 22.4437 13.1121 23.3793 13.1121C24.315 13.1121 25.0762 12.3511 25.0762 11.4154C25.0762 10.4798 24.315 9.71857 23.3793 9.71857C22.4437 9.71857 21.6826 10.4798 21.6826 11.4154Z" fill="black"></path> <path fill-rule="evenodd" clip-rule="evenodd" d="M17.5001 12.9893C15.0128 12.9893 12.9891 15.0128 12.9891 17.5002C12.9891 19.9874 15.0128 22.0111 17.5001 22.0111C19.9874 22.0111 22.011 19.9874 22.011 17.5002C22.011 15.0128 19.9874 12.9893 17.5001 12.9893Z" fill="black"></path> <path fill-rule="evenodd" clip-rule="evenodd" d="M23.3793 10.9502C23.1226 10.9502 22.9137 11.1591 22.9137 11.4158C22.9137 11.6725 23.1226 11.8814 23.3793 11.8814C23.6361 11.8814 23.845 11.6726 23.845 11.4158C23.845 11.159 23.6361 10.9502 23.3793 10.9502Z" fill="black"></path></svg>