<svg viewBox="0 0 35 35" fill="none" xmlns="http://www.w3.org/2000/svg"><path fill-rule="evenodd" clip-rule="evenodd" d="M10.3731 8.02441C8.93839 8.02441 8 8.93852 8 10.1406C8 11.3165 8.91124 12.2583 10.3174 12.2583H10.3454C11.8079 12.2583 12.7174 11.3167 12.7174 10.1406C12.6898 8.93852 11.8079 8.02441 10.3731 8.02441ZM27.5598 19.1558V26.1803H23.3675V19.6263C23.3675 17.9798 22.7612 16.8562 21.2437 16.8562C20.0853 16.8562 19.3959 17.6134 19.0926 18.3459C18.982 18.6078 18.9536 18.9723 18.9536 19.3389V26.1803H14.7599C14.7599 26.1803 14.8163 15.0799 14.7599 13.9298H18.9532V15.6662C18.9492 15.6724 18.9446 15.6787 18.94 15.685L18.94 15.6851L18.94 15.6851C18.9349 15.6922 18.9298 15.6992 18.9256 15.7058H18.9532V15.6662C19.5103 14.8327 20.5053 13.642 22.7323 13.642C25.4914 13.6419 27.5598 15.3929 27.5598 19.1558ZM12.4412 26.1803H8.24907V13.9298H12.4412V26.1803Z" fill="black"></path></svg>