<svg viewBox="0 0 35 35" fill="none" xmlns="http://www.w3.org/2000/svg"><path fill-rule="evenodd" clip-rule="evenodd" d="M28.4 10.1546C27.567 10.52 26.6794 10.7622 25.754 10.8798C26.706 10.3114 27.4326 9.4182 27.7742 8.3416C26.8866 8.8708 25.9066 9.2446 24.8622 9.4532C24.0194 8.5558 22.8182 8 21.5078 8C18.9654 8 16.9186 10.0636 16.9186 12.5934C16.9186 12.9574 16.9494 13.3074 17.025 13.6406C13.2072 13.4544 9.829 11.6246 7.5596 8.8372C7.1634 9.5246 6.931 10.3114 6.931 11.1584C6.931 12.7488 7.75 14.1586 8.9708 14.9748C8.233 14.9608 7.5092 14.7466 6.896 14.4092C6.896 14.4232 6.896 14.4414 6.896 14.4596C6.896 16.6912 8.4878 18.5448 10.5752 18.9718C10.2014 19.074 9.794 19.123 9.3712 19.123C9.0772 19.123 8.7804 19.1062 8.5018 19.0446C9.0968 20.8632 10.7852 22.2002 12.7928 22.2436C11.2304 23.4658 9.2466 24.2022 7.099 24.2022C6.7224 24.2022 6.3612 24.1854 6 24.1392C8.0342 25.451 10.445 26.2 13.0448 26.2C21.4952 26.2 26.1152 19.2 26.1152 13.1324C26.1152 12.9294 26.1082 12.7334 26.0984 12.5388C27.0098 11.892 27.7756 11.0842 28.4 10.1546Z" fill="black"></path></svg>